<svg xmlns="http://www.w3.org/2000/svg" viewBox="0 0 154.57 132.1"><defs><style>.a{fill:#aa1515;}</style></defs><title>資產 1</title><path class="a" d="M45.3,26.17C60.21,22.25,89.24,23.56,92.38,34c1.05,3.92,0,7.33-2.88,9.42-14.12,9.94-25.37,22.76-35,36.62-9.94,13.86-18.31,29.3-23,45.78-1.3,4.7-5,7.06-9.15,6C11.55,129,.83,104.65,0,90.26a66.59,66.59,0,0,1,11.77-40C19.4,38.47,31.43,30.1,45.3,26.17ZM148.62,78.49a61.6,61.6,0,0,1-12,17.53,64.83,64.83,0,0,1-17,12c-13.61,6.8-42.38,10.2-47.61.26-1.83-2.88-1.31-6.8,1-9.68a166.85,166.85,0,0,0,28.25-42.37A167.38,167.38,0,0,0,115.66,7.34C116.45,2.89,119.33-.25,124,0c11.51,1.3,25.12,22.49,28.78,37.14a67.35,67.35,0,0,1,1.57,20.4A63.92,63.92,0,0,1,148.62,78.49Zm-70.1,24.33c19.62-6.28,34.79-19.36,42.9-36.62A73.16,73.16,0,0,0,122.2,6a2.85,2.85,0,0,0-1,2.36,188.54,188.54,0,0,1-14.91,50.22A182.13,182.13,0,0,1,78,101.51C77.73,102,77.73,103.08,78.52,102.82Z"/></svg>